HIERARCHY
ROOT Hips
{
  OFFSET 196.326 95.9168 97.7182
  CHANNELS 6 Xposition Yposition Zposition Zrotation Xrotation Yrotation
  JOINT LeftUpLeg
  {
    OFFSET 8.64259 1.95398 -2.38835
    CHANNELS 3 Zrotation Xrotation Yrotation
    JOINT LeftLeg
    {
      OFFSET 43.7702 0 0
      CHANNELS 3 Zrotation Xrotation Yrotation
      JOINT LeftFoot
      {
        OFFSET 40.6238 0 0
        CHANNELS 3 Zrotation Xrotation Yrotation
        JOINT LeftToeBase
        {
          OFFSET 12.7242 0 0
          CHANNELS 3 Zrotation Xrotation Yrotation
          End Site
          {
            OFFSET 0 0 0
          }
        }
      }
    }
  }
  JOINT RightUpLeg
  {
    OFFSET -8.2249 1.95398 -2.59336
    CHANNELS 3 Zrotation Xrotation Yrotation
    JOINT RightLeg
    {
      OFFSET 43.5653 0 0
      CHANNELS 3 Zrotation Xrotation Yrotation
      JOINT RightFoot
      {
        OFFSET 40.6238 0 0
        CHANNELS 3 Zrotation Xrotation Yrotation
        JOINT RightToeBase
        {
          OFFSET 12.7242 0 0
          CHANNELS 3 Zrotation Xrotation Yrotation
          End Site
          {
            OFFSET 0 0 0
          }
        }
      }
    }
  }
  JOINT Spine
  {
    OFFSET 0.165834 0.87714 6.61349
    CHANNELS 3 Zrotation Xrotation Yrotation
    JOINT Spine1
    {
      OFFSET 7.38963 1.71661e-005 0
      CHANNELS 3 Zrotation Xrotation Yrotation
      JOINT Spine2
      {
        OFFSET 11.9445 1.14441e-005 0
        CHANNELS 3 Zrotation Xrotation Yrotation
        JOINT Spine3
        {
          OFFSET 14.7254 4.19617e-005 0
          CHANNELS 3 Zrotation Xrotation Yrotation
          JOINT Spine4
          {
            OFFSET 10.9679 0 0
            CHANNELS 3 Zrotation Xrotation Yrotation
            JOINT RightShoulder
            {
              OFFSET 2.46616 -1.6653 3.69651
              CHANNELS 3 Zrotation Xrotation Yrotation
              JOINT RightArm
              {
                OFFSET 13.0012 0 0
                CHANNELS 3 Zrotation Xrotation Yrotation
                JOINT RightForeArm
                {
                  OFFSET 28.7848 1.52588e-005 0
                  CHANNELS 3 Zrotation Xrotation Yrotation
                  JOINT RightHand
                  {
                    OFFSET 26.5688 1.52588e-005 0
                    CHANNELS 3 Zrotation Xrotation Yrotation
                    End Site
                    {
                      OFFSET 0 0 0
                    }
                  }
                }
              }
            }
            JOINT LeftShoulder
            {
              OFFSET 2.38034 -1.29275 -3.75231
              CHANNELS 3 Zrotation Xrotation Yrotation
              JOINT LeftArm
              {
                OFFSET 16.3182 6.10351e-005 0
                CHANNELS 3 Zrotation Xrotation Yrotation
                JOINT LeftForeArm
                {
                  OFFSET 27.0901 0 0
                  CHANNELS 3 Zrotation Xrotation Yrotation
                  JOINT LeftHand
                  {
                    OFFSET 24.5451 1.52588e-005 0
                    CHANNELS 3 Zrotation Xrotation Yrotation
                    End Site
                    {
                      OFFSET 0 0 0
                    }
                  }
                }
              }
            }
            JOINT Neck
            {
              OFFSET 5.0226 -0.0266342 0
              CHANNELS 3 Zrotation Xrotation Yrotation
              JOINT Head
              {
                OFFSET 6.69363 2.86102e-005 0
                CHANNELS 3 Zrotation Xrotation Yrotation
                End Site
                {
                  OFFSET 0 0 0
                }
              }
            }
          }
        }
      }
    }
  }
}
MOTION
Frames:	18
Frame Time:	0.0416667
-50.3607 96.8507 48.7303 -36.3545 -87.1814 -35.8104 -171.519 5.4401 93.1329 -6.76569 10.1353 -0.110612 57.2947 3.36912 13.6219 42.2859 11.1535 -33.1605 177.493 6.6982 87.7087 -10.8695 6.02535 -1.29408 63.7884 -1.95762 -1.03691 31.0353 -0.710777 19.4294 0.0239472 6.68246 -90.1047 13.5089 0.0058572 -0.210556 1.83797 -0.00345356 -0.210797 -20.6971 0.069127 -0.197824 -0.684414 0.0691191 -0.197819 82.3951 -48.9514 -112.718 28.2995 -10.2962 4.79122 -3.29752 -12.6093 -36.8289 -8.09379 -0.674032 3.96923 -102.883 -42.9601 56.7958 -29.7482 10.6938 2.941 2.80678 10.3641 -28.7944 12.2977 1.01094 4.17115 13.1726 2.1519 3.07474 -4.17472 1.29893 -0.833362 
-50.3445 96.8661 48.7724 -35.6069 -87.1157 -34.9384 -171.406 5.69398 93.2529 -7.0518 9.36338 -0.157848 57.4547 3.28844 13.3283 43.8969 11.9459 -34.8519 177.453 6.66909 87.7684 -10.682 5.86851 -1.19217 63.2011 -1.8312 -0.964553 32.2438 -0.399652 18.6552 0.0288356 6.67135 -90.1052 13.5311 0.00424281 -0.210924 1.86015 -0.00504099 -0.210809 -20.6749 0.0674527 -0.200622 -0.662225 0.0674581 -0.200617 82.2468 -49.1473 -112.869 28.3711 -10.255 4.82599 -3.69683 -13.234 -36.5686 -8.46889 -0.697401 3.89101 -102.848 -42.9258 56.833 -29.7331 10.824 2.86175 2.47993 10.0562 -28.271 11.6741 0.997653 4.444 13.8043 1.88408 2.23072 -5.17465 1.26808 0.824653 
-50.3535 96.8453 48.7693 -34.3701 -87.0791 -33.7 -171.204 5.85665 93.3351 -7.26235 9.3122 -0.356321 58.1908 3.94251 13.0979 41.9099 10.7823 -34.8074 177.532 6.7443 87.8135 -10.7357 6.12332 -1.24942 63.4432 -1.87434 -0.98823 31.8573 -0.502216 19.0275 0.01172 6.67713 -90.0964 13.5195 -0.0234456 -0.190047 1.84856 -0.0317967 -0.188839 -20.6865 0.0347544 -0.188308 -0.673837 0.0347536 -0.188307 82.0622 -49.3413 -113.074 28.1038 -10.2892 4.74077 -3.62795 -13.3844 -36.6346 -8.38584 -0.734789 4.58571 -102.695 -42.9313 57.0691 -29.8342 10.8514 2.7906 2.56722 10.2592 -28.4084 12.2051 1.07869 4.7528 13.9824 1.97424 2.02497 -5.3032 1.40435 0.858636 
-50.3464 96.8422 48.7448 -35.6014 -87.0207 -34.9436 -171.208 5.86886 93.3302 -7.31707 9.4699 -0.381278 58.2703 4.08036 13.1784 41.2228 10.4037 -34.4692 177.545 6.82314 87.7934 -10.777 6.11118 -1.26549 63.3707 -1.83611 -0.964909 32.072 -0.461236 19.2767 0.0158884 6.6829 -90.1033 13.508 -0.0184598 -0.204502 1.83704 -0.0274427 -0.203492 -20.698 0.043853 -0.2006 -0.685343 0.0438554 -0.200594 81.913 -49.0715 -113.398 28.3165 -10.1513 4.92348 -3.73681 -12.9618 -36.8457 -8.09253 -0.695884 4.30138 -102.74 -42.9784 57.0246 -29.796 10.8274 2.85382 2.56581 10.135 -28.499 12.127 1.06219 4.67263 13.8517 1.97407 2.11685 -5.35907 1.38434 1.00561 
-50.4168 96.8474 48.746 -34.9552 -87.0072 -34.2767 -171.409 5.74619 93.3058 -6.91954 9.13485 -0.129691 57.5419 3.33788 12.989 43.0902 11.4944 -34.6308 177.561 6.83217 87.8518 -10.7796 5.99993 -1.24413 63.3764 -1.8379 -0.966667 31.8598 -0.492504 18.7819 0.0284701 6.68712 -90.1158 13.4996 0.000410305 -0.231946 1.8286 -0.00979395 -0.231745 -20.7064 0.0700968 -0.221096 -0.693752 0.0700961 -0.221101 82.0451 -49.2824 -113.121 27.8247 -10.54 4.75737 -2.98954 -12.4219 -36.506 -8.2464 -0.685228 3.99837 -102.908 -43.006 56.7793 -29.5591 10.8112 2.98916 2.44074 9.89625 -28.415 12.088 1.0255 4.41002 14.0784 1.99121 1.40719 -5.83484 1.58497 2.0075 
-50.8122 96.8365 48.7462 -37.349 -86.8562 -36.6316 -171.27 5.54801 93.6346 -6.37186 9.24093 -0.13093 56.9753 3.04201 12.9393 45.0502 12.4864 -35.9896 177.558 7.06419 88.0675 -11.1593 5.8365 -1.07468 63.5266 -1.78215 -0.930577 31.7919 -0.507073 18.7466 0.0430378 6.67595 -90.1549 13.5218 0.0103556 -0.31156 1.85086 -0.00336511 -0.31173 -20.684 0.103511 -0.294052 -0.671371 0.103523 -0.294043 81.9574 -49.0478 -113.342 27.9694 -10.3348 4.95353 -3.39319 -13.1406 -36.8042 -8.42342 -0.724741 4.39919 -102.963 -43.0843 56.7322 -29.4838 10.6574 3.21702 2.48317 9.91474 -28.3313 12.1739 1.01406 4.26984 14.0357 1.99997 1.88598 -6.10605 1.46247 1.62397 
-51.5266 96.8438 48.7198 -37.1501 -86.89 -36.1443 -170.989 5.77142 94.3339 -6.59917 9.71712 -0.117487 57.3585 3.51451 13.0407 43.3812 11.5586 -35.677 177.449 7.07264 88.5794 -11.3465 6.0086 -0.606341 64.0035 -1.91639 -1.0103 31.0311 -0.703839 19.2584 0.0427426 6.68835 -90.21 13.4972 -0.0168895 -0.418258 1.82619 -0.0352749 -0.417114 -20.7085 0.109587 -0.404002 -0.695823 0.109599 -0.403997 81.9269 -49.11 -113.364 27.9251 -10.2552 4.89616 -3.50519 -12.8554 -36.7035 -7.81506 -0.689374 4.54106 -102.695 -42.9885 57.0967 -29.3028 10.6499 3.11671 2.49747 9.99371 -28.2994 11.8947 1.0514 4.73184 14.2866 2.11381 2.00729 -6.14935 1.53405 1.24833 
-52.5999 96.8277 48.7165 -32.5962 -87.0792 -31.5177 -170.945 6.03121 94.9737 -6.82827 10.8227 0.0368127 57.2407 3.87703 13.9948 42.9359 11.2602 -36.1 177.663 7.03987 89.2208 -11.6511 6.4554 -0.46049 64.3996 -1.89011 -0.989668 30.8405 -0.769091 19.7041 0.0428195 6.70308 -90.2717 13.4672 -0.0465983 -0.538132 1.79618 -0.0702315 -0.535562 -20.7381 0.117291 -0.527254 -0.725461 0.117287 -0.527262 82.0397 -48.9491 -113.254 28.0067 -10.2621 4.72656 -3.75758 -13.2541 -36.5123 -7.96318 -0.678315 4.14472 -102.976 -43.0886 56.7147 -28.8852 10.7051 3.00392 2.37002 10.0285 -28.0598 12.4584 1.08455 4.64242 14.1288 2.02185 2.33281 -5.84163 1.36405 1.02251 
-53.8187 96.785 48.7866 -19.5283 -87.2913 -18.6165 -171.098 6.36919 95.3867 -6.9394 10.8358 0.389236 56.4357 2.78957 12.8428 45.3172 12.8851 -34.0318 177.486 7.13065 89.5643 -12.1135 7.08975 0.021968 65.0521 -1.85823 -0.968666 29.9616 -1.02635 20.5678 -0.00941024 6.69363 -90.3215 13.4857 -0.174366 -0.621516 1.8146 -0.20154 -0.613253 -20.7194 0.0204783 -0.645189 -0.706714 0.0204881 -0.645189 81.7524 -49.1444 -113.613 27.7739 -10.2027 4.88139 -3.512 -13.0063 -36.5586 -9.00883 -0.800245 4.89388 -103.068 -43.0413 56.5535 -29.0802 10.6355 2.88361 2.49144 10.1174 -28.1393 12.3371 1.06562 4.56934 14.1126 2.03202 1.4781 -5.9324 1.6061 2.33026 
-55.2111 96.718 48.7755 -10.7459 -87.4415 -9.7938 -171.227 6.58729 96.1075 -7.09602 11.5442 0.824267 56.1615 2.52302 12.6694 45.8804 13.4493 -32.3244 177.333 7.33928 90.1698 -12.93 7.03004 0.607765 65.4186 -1.74733 -0.902038 29.6172 -1.07426 19.926 -0.0387068 6.71196 -90.4112 13.4483 -0.275798 -0.788043 1.77714 -0.310209 -0.775152 -20.7561 -0.0262277 -0.834503 -0.743453 -0.0262159 -0.834495 81.8181 -49.3468 -113.439 27.3008 -10.3333 4.54511 -3.63092 -13.5115 -36.277 -7.58249 -0.72957 5.51543 -102.706 -42.792 56.9878 -29.8703 11.0937 2.34937 2.38834 10.1365 -28.3737 12.2346 1.03515 4.39616 13.7494 2.19249 1.27686 -5.15944 1.82901 1.75215 
-56.6733 96.6412 48.7427 -8.9175 -87.3015 -8.21973 -171.48 6.93528 96.5074 -7.07572 10.9517 1.30062 55.3316 1.54388 12.0608 46.675 14.1655 -30.8081 177.05 7.5809 90.5057 -13.3487 6.75181 1.20875 66.455 -1.93437 -1.00632 28.5168 -1.38899 20.6538 -0.0603269 6.72094 -90.4868 13.4297 -0.355247 -0.929672 1.75844 -0.395822 -0.913145 -20.7741 -0.0594416 -0.993456 -0.761438 -0.059436 -0.993448 81.6159 -49.2754 -113.769 27.1452 -10.3192 4.35075 -3.87793 -13.9757 -36.4509 -7.64967 -0.743077 5.6359 -102.896 -42.7992 56.7005 -30.3562 11.4625 2.09724 2.3432 10.1046 -28.6753 12.2631 1.0408 4.42086 14.0091 2.10813 1.31543 -5.59327 1.716 0.811256 
-58.0749 96.5074 48.6678 -2.41952 -87.203 -1.73718 -171.717 7.35479 97.1121 -7.27689 11.4121 1.7552 55.3888 1.42553 11.4248 44.6283 13.274 -27.5033 177.037 7.71841 91.1035 -13.653 6.319 1.62506 67.4896 -2.0969 -1.09198 27.3509 -1.64782 20.2988 -0.106506 6.71644 -90.5889 13.4373 -0.496241 -1.11562 1.76594 -0.54486 -1.09271 -20.7655 -0.138044 -1.21316 -0.752842 -0.138045 -1.21318 81.3257 -49.5527 -114.098 26.6123 -10.9175 4.15685 -3.3033 -13.8411 -36.1462 -7.80459 -0.724623 5.11374 -103.078 -42.7117 56.3817 -30.7522 11.84 1.98673 2.19269 10.0694 -28.8687 13.1384 1.10963 4.42805 14.1968 1.91769 0.974192 -5.6763 1.61931 1.04588 
-59.1767 96.4527 48.5588 16.9355 -86.5281 17.4591 -171.782 8.54355 97.4339 -7.47397 12.5489 1.69504 54.4151 0.830149 11.7311 45.3921 13.779 -27.5805 176.806 8.36941 91.3703 -14.1 6.77181 2.15442 67.5352 -1.90613 -0.983025 27.3124 -1.67473 20.5091 -0.236014 6.67542 -90.6854 13.5169 -0.80028 -1.26955 1.84564 -0.855381 -1.23311 -20.6851 -0.38178 -1.45133 -0.672502 -0.381775 -1.45133 81.4107 -49.6046 -113.951 26.2298 -11.3665 4.12352 -3.3707 -14.4766 -36.2635 -8.08457 -0.762357 5.35145 -102.76 -42.3238 56.6869 -31.2209 12.4613 1.30417 1.96136 10.1516 -28.87 12.9824 1.03569 3.97016 14.6092 1.71667 0.254089 -5.90177 1.61221 1.5215 
-60.275 96.4501 48.4505 3.87518 -87.206 3.37455 -171.91 7.79999 97.0739 -7.66391 11.1948 1.88818 55.213 1.07525 9.8446 41.615 11.5876 -23.6682 176.691 8.47455 91.0494 -15.1246 5.86187 2.01138 67.9853 -1.80571 -0.917946 26.7909 -1.8492 21.0598 -0.160816 6.72218 -90.6877 13.4245 -0.651687 -1.29324 1.75314 -0.707969 -1.26332 -20.7771 -0.232933 -1.42929 -0.764489 -0.232932 -1.42928 81.2744 -49.5003 -114.194 25.6925 -11.4086 4.42831 -3.13384 -14.5028 -35.8215 -7.52233 -0.721061 5.4001 -103.247 -42.2392 55.8996 -31.4886 12.7494 1.42539 2.01343 9.8362 -29.8341 13.1916 1.11483 4.43481 14.5272 1.56416 -0.213523 -5.96007 1.58777 1.5726 
-60.6813 96.3499 48.3518 9.73098 -86.8459 9.60332 -172.088 8.53746 97.412 -8.08008 11.2 2.18927 55.4682 1.43339 9.20856 40.4028 10.8164 -22.2797 176.654 8.53479 91.5008 -14.6912 6.10674 2.41507 68.3015 -1.89791 -0.971457 26.2041 -1.9976 21.0476 -0.208393 6.66798 -90.8172 13.5297 -0.809447 -1.53252 1.85819 -0.876101 -1.49543 -20.6702 -0.311516 -1.70489 -0.657514 -0.311513 -1.70489 81.0494 -49.7397 -114.438 24.5282 -11.6728 4.72041 -2.63685 -14.7402 -35.5648 -7.8004 -0.721634 5.04071 -103.187 -41.9983 55.8767 -31.8173 13.0742 1.13324 2.11709 9.74397 -30.5949 13.4511 1.15461 4.57476 14.4394 1.12004 -1.35447 -5.89722 1.46045 1.87998 
-61.003 96.3804 48.1719 -24.1261 -87.5595 -24.8619 -172.077 7.40973 97.0563 -8.13982 9.81839 2.29416 54.8802 1.19457 9.41432 41.4881 11.4902 -23.7314 176.532 8.36411 91.1114 -15.6636 4.40918 2.16486 68.5964 -1.96011 -0.992827 26.1359 -2.01893 21.1042 -0.118591 6.75606 -90.794 13.3552 -0.61898 -1.51092 1.68357 -0.684859 -1.48223 -20.8446 -0.136327 -1.62707 -0.831999 -0.136334 -1.62707 81.1285 -49.6474 -114.355 24.0713 -11.3983 4.91866 -3.06237 -15.0636 -35.6913 -7.95699 -0.755801 5.39197 -102.94 -41.9237 56.2198 -31.9857 13.5777 0.591281 2.15606 10.1071 -30.8521 13.6292 1.20957 4.8607 14.4428 0.930995 -2.08972 -6.04356 1.46777 1.64515 
-60.9696 96.3334 48.0413 -41.3919 -87.174 -42.244 -172.139 7.06111 96.9025 -8.2543 9.46219 2.39991 55.7806 1.94923 8.99667 39.4334 10.0942 -22.2843 176.605 8.58194 91.0264 -16.0517 3.57731 1.98519 68.7711 -2.00723 -1.01173 26.1308 -2.00356 20.9224 -0.117211 6.7592 -90.795 13.3489 -0.616693 -1.51354 1.67723 -0.682707 -1.48494 -20.851 -0.133372 -1.62887 -0.838321 -0.13337 -1.62888 81.354 -49.2579 -114.168 23.9485 -11.129 4.58554 -2.61805 -14.8117 -34.63 -7.60949 -0.7047 4.96828 -103.156 -42.1354 55.9894 -31.6287 13.8287 0.645468 2.31268 10.4574 -31.2364 13.2948 1.18826 4.90485 14.4282 0.879134 -2.03169 -5.84733 1.39932 0.973839 
-60.5697 96.3459 47.8406 -44.4421 -87.1131 -45.0022 -171.994 7.18949 97.0144 -8.33502 9.5573 2.25553 55.6048 2.11349 9.45997 40.1278 10.5218 -23.4822 176.671 8.45087 91.0696 -15.5903 3.49938 1.95602 68.3843 -1.93037 -0.972461 26.2916 -1.92761 20.5185 -0.182235 6.74988 -90.7557 13.3674 -0.726776 -1.42065 1.69595 -0.788599 -1.3873 -20.8333 -0.266273 -1.57336 -0.820669 -0.266281 -1.57337 81.2523 -50.0922 -114.002 23.1256 -11.312 4.33784 -2.66254 -14.9806 -34.572 -7.79671 -0.717941 4.94201 -102.788 -41.7958 56.3943 -31.7139 13.9216 0.329778 2.06845 10.3801 -30.793 13.3619 1.20993 5.02197 14.0931 0.852612 -3.04436 -5.35348 1.64375 1.52762 
